<svg width="24" height="24" viewBox="0 0 24 24" fill="none" xmlns="http://www.w3.org/2000/svg">
<g clip-path="url(#clip0_1033_3729)">
<path fill-rule="evenodd" clip-rule="evenodd" d="M13.36 12.18C12.75 10.12 10.36 10.8 9.83999 11.39C9.68803 11.5626 9.57751 11.7677 9.51685 11.9895C9.45619 12.2113 9.44701 12.4441 9.48999 12.67C9.63999 14.1 10.49 14.67 12 14.36C12.2407 14.3221 12.4704 14.2329 12.6736 14.0984C12.8768 13.9639 13.0488 13.7873 13.1777 13.5805C13.3067 13.3738 13.3897 13.1417 13.4212 12.9001C13.4526 12.6585 13.4318 12.4129 13.36 12.18ZM11.73 13.06C10.88 13.25 10.73 13.01 10.61 12.47C10.55 12.23 10.53 12.05 10.68 11.92C10.83 11.79 12.14 10.92 12.31 12.4C12.3215 12.4826 12.3151 12.5667 12.2911 12.6466C12.2672 12.7265 12.2263 12.8003 12.1712 12.8629C12.1162 12.9256 12.0483 12.9756 11.9721 13.0096C11.896 13.0436 11.8134 13.0608 11.73 13.06Z" fill="black"/>
<path fill-rule="evenodd" clip-rule="evenodd" d="M1.05004 6.59997C1.59004 6.59997 1.28004 6.04997 1.24004 3.78997C1.24004 2.09997 1.14004 1.48997 3.04004 1.20997C4.11004 1.05997 5.27004 1.20997 6.34004 1.15997C6.43401 1.14497 6.51955 1.09696 6.58131 1.02457C6.64306 0.952171 6.67699 0.86013 6.67699 0.764971C6.67699 0.669812 6.64306 0.57777 6.58131 0.505374C6.51955 0.432978 6.43401 0.38497 6.34004 0.369971C4.55004 0.229971 2.38004 -0.660029 0.500036 0.999971C-0.569964 1.99997 0.500036 5.04997 0.680036 6.29997C0.683734 6.34431 0.696362 6.38745 0.71716 6.42679C0.737958 6.46613 0.766497 6.50085 0.80106 6.52887C0.835623 6.5569 0.875497 6.57764 0.918284 6.58986C0.961071 6.60208 1.00589 6.60552 1.05004 6.59997Z" fill="black"/>
<path fill-rule="evenodd" clip-rule="evenodd" d="M6.34001 22.84C5.27001 22.79 4.11001 22.94 3.04001 22.79C1.09001 22.51 1.30001 21.62 1.30001 21.58C1.22909 20.3133 1.25248 19.0432 1.37001 17.78C1.38158 17.7311 1.38248 17.6803 1.37265 17.631C1.36282 17.5817 1.3425 17.5351 1.31306 17.4944C1.28362 17.4537 1.24576 17.4198 1.20204 17.395C1.15833 17.3702 1.10979 17.3551 1.05973 17.3507C1.00967 17.3464 0.959255 17.3529 0.91192 17.3697C0.864584 17.3866 0.821436 17.4135 0.785409 17.4485C0.749383 17.4835 0.721322 17.5259 0.703136 17.5728C0.684949 17.6196 0.677063 17.6698 0.680014 17.72C0.540014 18.52 -0.219986 20.97 0.100014 22.33C0.350014 23.33 1.84001 23.94 2.92001 23.99C4.07001 23.9453 5.21581 23.8251 6.35001 23.63C6.44383 23.6138 6.52881 23.5648 6.58969 23.4916C6.65056 23.4184 6.68334 23.3259 6.68214 23.2307C6.68093 23.1355 6.64582 23.0439 6.58311 22.9723C6.5204 22.9007 6.43421 22.8537 6.34001 22.84Z" fill="black"/>
<path fill-rule="evenodd" clip-rule="evenodd" d="M17.66 1.16C18.73 1.21 19.89 1.06 20.96 1.21C22.96 1.49 22.7 2.38 22.71 2.42C22.7785 3.68688 22.7517 4.95712 22.63 6.22C22.6221 6.31283 22.6513 6.40501 22.7113 6.47627C22.7713 6.54754 22.8572 6.59204 22.95 6.6C23.0429 6.60796 23.135 6.57871 23.2063 6.5187C23.2776 6.45869 23.3221 6.37283 23.33 6.28C23.46 5.51 24.23 3.03 23.9 1.67C23.65 0.63 22.16 0.06 21.09 0C19.9367 0.044127 18.7875 0.164389 17.65 0.36C17.544 0.361326 17.4427 0.404741 17.3687 0.480693C17.2946 0.556645 17.2537 0.658913 17.255 0.765C17.2564 0.871087 17.2998 0.972301 17.3757 1.04638C17.4517 1.12046 17.554 1.16133 17.66 1.16Z" fill="black"/>
<path fill-rule="evenodd" clip-rule="evenodd" d="M23 17.4C22.46 17.45 22.77 17.94 22.81 20.21C22.82 20.6673 22.8033 21.1247 22.76 21.58C22.76 21.58 22.97 22.51 21.01 22.79C19.05 23.07 17.33 22.43 17.31 23.23C17.3087 23.2821 17.3178 23.3339 17.3368 23.3823C17.3558 23.4308 17.3843 23.475 17.4206 23.5123C17.457 23.5496 17.5004 23.5792 17.5484 23.5994C17.5964 23.6196 17.6479 23.63 17.7 23.63C18.8375 23.8256 19.9867 23.9459 21.14 23.99C22.21 23.99 23.7 23.37 23.95 22.33C24.27 20.99 23.5 18.42 23.38 17.72C23.3762 17.674 23.3634 17.6292 23.3422 17.5881C23.321 17.5471 23.2919 17.5106 23.2566 17.4809C23.2213 17.4512 23.1804 17.4287 23.1364 17.4148C23.0924 17.4009 23.046 17.3959 23 17.4Z" fill="black"/>
<path fill-rule="evenodd" clip-rule="evenodd" d="M17.72 12.93C18.8184 13.0456 19.9285 12.9677 21 12.7C21.0943 12.6794 21.1779 12.6255 21.2356 12.5481C21.2932 12.4707 21.3209 12.3751 21.3136 12.2789C21.3063 12.1827 21.2645 12.0924 21.1958 12.0246C21.1272 11.9568 21.0363 11.9161 20.94 11.91C19.13 11.81 19.06 11.45 16.5 11.83C16.4039 10.7933 15.928 9.82881 15.1638 9.12182C14.3996 8.41483 13.401 8.01528 12.36 7.99999C12.7304 6.58505 12.6922 5.09414 12.25 3.69999C12.2307 3.61821 12.1826 3.54612 12.1145 3.49689C12.0464 3.44766 11.9628 3.42458 11.8791 3.43186C11.7954 3.43914 11.7171 3.4763 11.6585 3.53654C11.5999 3.59679 11.565 3.6761 11.56 3.75999C11.2334 5.15062 11.1926 6.59311 11.44 7.99999C10.3715 8.07408 9.35277 8.48015 8.52625 9.16145C7.69974 9.84274 7.10671 10.7652 6.83003 11.8C6.83003 11.91 7.02003 11.91 5.58003 11.8C4.57996 11.7021 3.57137 11.7357 2.58003 11.9C2.52981 11.8914 2.47831 11.8939 2.42915 11.9073C2.37999 11.9207 2.33434 11.9446 2.2954 11.9775C2.25645 12.0103 2.22515 12.0513 2.20368 12.0975C2.18221 12.1437 2.17108 12.194 2.17108 12.245C2.17108 12.2959 2.18221 12.3463 2.20368 12.3925C2.22515 12.4387 2.25645 12.4797 2.2954 12.5125C2.33434 12.5454 2.37999 12.5693 2.42915 12.5827C2.47831 12.5961 2.52981 12.5986 2.58003 12.59C4.42003 13.04 4.75003 13.33 6.84003 12.82C6.93882 13.8949 7.44384 14.8916 8.25213 15.607C9.06042 16.3223 10.1111 16.7025 11.19 16.67C11.0164 17.8719 11.0879 19.0964 11.4 20.27C11.415 20.364 11.463 20.4495 11.5354 20.5113C11.6078 20.573 11.6999 20.6069 11.795 20.6069C11.8902 20.6069 11.9822 20.573 12.0546 20.5113C12.127 20.4495 12.175 20.364 12.19 20.27C12.5438 18.8492 12.4316 17.3522 11.87 16C11.87 15.08 10.57 16.92 8.66003 14.78C6.19003 12 9.89003 8.32999 13.32 9.42999C16.32 10.43 16.32 14.98 12.82 15.43C12.7254 15.4511 12.6416 15.506 12.5844 15.5843C12.5271 15.6626 12.5003 15.759 12.5088 15.8557C12.5174 15.9523 12.5608 16.0425 12.6309 16.1095C12.701 16.1766 12.7931 16.2158 12.89 16.22C13.6263 16.194 14.3388 15.9528 14.9395 15.5262C15.5402 15.0997 16.0028 14.5065 16.27 13.82C16.85 12.33 15.9 12.67 17.72 12.93Z" fill="black"/>
</g>
<defs>
<clipPath id="clip0_1033_3729">
<rect width="24" height="24" fill="white"/>
</clipPath>
</defs>
</svg>
