<svg width="24" height="24" viewBox="0 0 24 24" fill="none" xmlns="http://www.w3.org/2000/svg">
<g clip-path="url(#clip0_1047_6649)">
<path fill-rule="evenodd" clip-rule="evenodd" d="M4.88 9.79993C4.5797 9.40508 4.13954 9.14027 3.65 9.05994C3.55 8.87994 3.48 8.68993 3.37 8.50993C2.97 7.80993 2.52 7.13993 2.12 6.43993C2.12 6.43993 1.94 6.25993 1.8 6.09993H2.09C2.4651 5.98419 2.86063 5.95009 3.25 5.99993C3.44775 6.04771 3.62379 6.16038 3.75 6.31993L4.09 6.81993L4.49 7.57993C4.50962 7.62596 4.53813 7.66767 4.5739 7.70265C4.60967 7.73764 4.652 7.76521 4.69846 7.78379C4.74492 7.80237 4.79458 7.8116 4.84462 7.81094C4.89465 7.81028 4.94405 7.79974 4.99 7.77993C5.08118 7.73846 5.15229 7.66266 5.18787 7.56902C5.22345 7.47539 5.22062 7.37149 5.18 7.27993L4.86 6.43993L4.52 5.77993C4.30715 5.42223 3.9793 5.14726 3.59 4.99993C3.07372 4.8524 2.53339 4.80822 2 4.86993C1.67927 4.87502 1.36031 4.91867 1.05 4.99993C0.794658 5.07966 0.577548 5.2505 0.440003 5.47993C0.38477 5.58655 0.355942 5.70486 0.355942 5.82493C0.355942 5.94501 0.38477 6.06332 0.440003 6.16993C0.63658 6.5159 0.853633 6.84983 1.09 7.16993C1.64 7.85993 2.23 8.51993 2.77 9.16993C2.47 9.33993 1.77 9.41993 1.44 10.2199C1.36098 10.4278 1.32983 10.6509 1.34887 10.8725C1.36792 11.0941 1.43666 11.3086 1.55 11.4999C1.65124 11.7765 1.81774 12.0246 2.03536 12.2231C2.25298 12.4215 2.51529 12.5645 2.8 12.6399C3.35591 12.7004 3.91465 12.5545 4.37 12.2299C4.57494 12.1147 4.75288 11.957 4.89191 11.7674C5.03094 11.5778 5.12785 11.3607 5.17614 11.1306C5.22443 10.9005 5.22299 10.6628 5.17192 10.4333C5.12085 10.2038 5.02132 9.98783 4.88 9.79993ZM3.7 11.1399C3.5017 11.3014 3.25562 11.3928 3 11.3999C2.71 11.3999 2.58 11.1099 2.5 10.9799C2.42 10.8499 2.29 10.6199 2.38 10.4599C2.56794 10.155 2.85336 9.92241 3.19 9.79993C3.49 9.79993 4.6 10.6699 3.7 11.1399Z" fill="black"/>
<path fill-rule="evenodd" clip-rule="evenodd" d="M13.13 14.16C13.9449 13.7198 14.687 13.1565 15.33 12.49C16.0017 11.8326 16.5653 11.0733 17 10.24C17.246 9.73993 17.4533 9.22175 17.62 8.68998C17.85 7.91998 18.01 7.13998 18.19 6.35998C18.4933 5.21968 18.5881 4.03399 18.47 2.85998C18 -0.190023 16 -0.110023 15.21 0.0799769C13.8864 0.533196 12.7158 1.34711 11.83 2.42998C11.19 3.21998 10.28 3.42998 9.52999 4.05998C9.30072 4.24241 9.08973 4.44671 8.89999 4.66998C8.52906 5.11285 8.22577 5.60823 8 6.13998C7.79764 6.67744 7.68939 7.24576 7.68 7.81998C7.68 8.22998 7.76 8.67998 7.77 9.11998C7.78028 9.26313 7.78028 9.40683 7.77 9.54998C7.74916 9.62527 7.71532 9.69634 7.67 9.75998C7.46 10.06 7.13 10.35 6.97 10.63C6.65231 11.191 6.5459 11.8473 6.67 12.48C7.21 15.25 10.3 15.67 13.13 14.16ZM7.78 11.16C7.95 10.91 8.27 10.68 8.49 10.42V10.34C8.78 10.21 9.06999 10.09 9.35999 9.93998C9.64999 9.78998 9.81 9.66998 10.04 9.52998C10.3594 9.29867 10.6934 9.08823 11.04 8.89998C11.139 8.87404 11.2238 8.81023 11.2762 8.72231C11.3286 8.63438 11.3443 8.52939 11.32 8.42998C11.2941 8.33358 11.2314 8.25123 11.1453 8.20071C11.0593 8.15019 10.9568 8.13556 10.86 8.15998C10.4006 8.19391 9.94712 8.2846 9.51 8.42998C9.32664 8.49019 9.14922 8.56719 8.97999 8.65998L8.83 8.76998C8.81488 8.48351 8.81488 8.19644 8.83 7.90998C8.85703 7.4748 8.96203 7.04802 9.14 6.64998C9.31901 6.21942 9.57675 5.82603 9.89999 5.48998C10.2811 5.04742 10.7426 4.68097 11.26 4.40998C11.25 4.52309 11.25 4.63686 11.26 4.74998C11.2797 4.96662 11.3198 5.18092 11.38 5.38998C11.5198 5.86778 11.7287 6.32258 12 6.73998C12.0205 6.78637 12.0501 6.8282 12.087 6.86298C12.1239 6.89777 12.1674 6.92481 12.2149 6.94252C12.2625 6.96023 12.3131 6.96824 12.3637 6.96609C12.4144 6.96393 12.4641 6.95165 12.51 6.92998C12.5994 6.88655 12.6689 6.81061 12.7042 6.71768C12.7395 6.62475 12.738 6.52183 12.7 6.42998C12.638 6.19322 12.5912 5.95272 12.56 5.70998V4.99998C12.56 4.75998 12.56 4.53998 12.51 4.30998C12.46 4.07998 12.45 3.76998 12.43 3.50998C12.5474 3.40412 12.6577 3.29053 12.76 3.16998C13.4368 2.21002 14.3686 1.4584 15.45 0.999977C15.7619 0.886413 16.1035 0.884104 16.4169 0.99344C16.7304 1.10278 16.9964 1.31704 17.17 1.59998C17.3673 2.0439 17.4922 2.51655 17.54 2.99998C17.5707 4.05642 17.4115 5.10979 17.07 6.10998C16.85 6.85998 16.64 7.60998 16.39 8.33998C16.2337 8.80672 16.0432 9.26129 15.82 9.69998C15.3655 10.5513 14.7819 11.3272 14.09 12C13.408 12.7021 12.6096 13.2806 11.73 13.71C11.34 13.88 7.81 15.33 7.47 12.38C7.41309 11.936 7.52361 11.4868 7.78 11.12V11.16Z" fill="black"/>
<path fill-rule="evenodd" clip-rule="evenodd" d="M11.17 12.0699C11.7186 12.1196 12.2656 11.9587 12.7 11.6199C13.4236 11.0246 14.0568 10.3273 14.58 9.54994C15.0882 8.74286 15.4283 7.84154 15.58 6.89994C15.6275 6.55015 15.5885 6.19406 15.4664 5.86283C15.3444 5.5316 15.1431 5.23533 14.88 4.99994C14.669 4.83997 14.4088 4.75846 14.1442 4.76941C13.8796 4.78036 13.6271 4.88308 13.43 5.05994C13.3591 5.11045 13.3096 5.18556 13.2911 5.27061C13.2726 5.35567 13.2865 5.44456 13.33 5.51994C13.3791 5.59548 13.4562 5.64844 13.5443 5.66719C13.6324 5.68594 13.7244 5.66894 13.8 5.61994C13.8513 5.58063 13.9106 5.5531 13.9737 5.5393C14.0368 5.5255 14.1022 5.52577 14.1652 5.54009C14.2282 5.55441 14.2873 5.58242 14.3382 5.62215C14.3892 5.66187 14.4308 5.71233 14.46 5.76994C14.5353 5.91156 14.5812 6.06695 14.595 6.22677C14.6087 6.38658 14.59 6.54753 14.54 6.69994C14.453 7.00278 14.3392 7.29727 14.2 7.57994C13.9943 8.02436 13.7605 8.45523 13.5 8.86994C13.0736 9.59397 12.5634 10.2653 11.98 10.8699C11.7761 11.0773 11.5006 11.199 11.21 11.2099C11.0752 11.2214 10.94 11.1946 10.8197 11.1327C10.6994 11.0708 10.599 10.9763 10.53 10.8599C10.5096 10.8148 10.4803 10.7741 10.4439 10.7405C10.4075 10.7069 10.3648 10.6809 10.3181 10.6641C10.2715 10.6473 10.2219 10.64 10.1724 10.6428C10.123 10.6455 10.0745 10.6581 10.03 10.6799C9.94057 10.7234 9.8711 10.7993 9.83578 10.8922C9.80047 10.9852 9.80198 11.0881 9.84 11.1799C9.957 11.4373 10.1434 11.6569 10.3784 11.8141C10.6133 11.9714 10.8875 12.0599 11.17 12.0699Z" fill="black"/>
<path fill-rule="evenodd" clip-rule="evenodd" d="M23.11 11.1C22.765 10.3534 22.2872 9.67573 21.7 9.09995C20.7 8.04995 19.61 7.17995 19.41 4.78995C19.41 4.69978 19.3742 4.6133 19.3104 4.54954C19.2467 4.48577 19.1602 4.44995 19.07 4.44995C18.9798 4.44995 18.8934 4.48577 18.8296 4.54954C18.7658 4.6133 18.73 4.69978 18.73 4.78995C18.6975 5.55621 18.7887 6.3227 19 7.05995C19.4593 8.20432 20.1388 9.24738 21 10.13C21.6255 10.8431 22.0682 11.6976 22.29 12.62C22.4378 13.253 22.5183 13.9 22.53 14.55C22.5547 15.2065 22.4174 15.8591 22.13 16.45C21.8897 16.9532 21.5494 17.4024 21.13 17.77C20.9682 16.933 20.5769 16.1575 20 15.53C19.2699 14.6977 18.2794 14.1373 17.19 13.94C16.161 13.7695 15.1089 13.7966 14.09 14.02C14.0467 14.0239 14.0045 14.0363 13.966 14.0566C13.9275 14.0768 13.8933 14.1044 13.8654 14.1378C13.8376 14.1712 13.8166 14.2098 13.8036 14.2514C13.7907 14.2929 13.7861 14.3366 13.79 14.38C13.7939 14.4233 13.8064 14.4654 13.8266 14.504C13.8468 14.5425 13.8744 14.5767 13.9079 14.6045C13.9413 14.6324 13.9799 14.6534 14.0214 14.6663C14.063 14.6793 14.1067 14.6839 14.15 14.68C15.081 14.6794 16.006 14.828 16.89 15.12C17.2334 15.2306 17.5677 15.3677 17.89 15.53C18.1571 15.6614 18.4144 15.8118 18.66 15.98C19.2458 16.3642 19.7324 16.8816 20.08 17.49C20.1902 17.6574 20.2682 17.8439 20.31 18.04C20.3 18.0943 20.3019 18.1502 20.3158 18.2038C20.3296 18.2573 20.3549 18.3072 20.39 18.35C20.39 18.35 20.3 18.29 20.25 18.29L15.25 18.14C13.76 18.14 12.25 18.07 10.78 18.14C8.54 18.14 6.31 18.36 4.07 18.5C3.99108 18.5136 3.91953 18.5547 3.86795 18.616C3.81638 18.6773 3.7881 18.7549 3.7881 18.835C3.7881 18.9151 3.81638 18.9926 3.86795 19.0539C3.91953 19.1152 3.99108 19.1563 4.07 19.17L5.22 19.22C5.07797 19.7241 5.01058 20.2463 5.02 20.77C5.0499 21.1376 5.1101 21.5022 5.2 21.86C5.3 22.26 5.42 22.64 5.53 23.03L4.06 23.12C4.01581 23.1199 3.97207 23.1288 3.93137 23.146C3.89066 23.1632 3.85383 23.1884 3.82305 23.2201C3.79227 23.2518 3.76818 23.2894 3.7522 23.3306C3.73621 23.3718 3.72867 23.4158 3.73 23.4599C3.72852 23.5045 3.73638 23.549 3.75308 23.5903C3.76977 23.6317 3.79494 23.6691 3.82696 23.7002C3.85897 23.7313 3.89714 23.7553 3.93899 23.7708C3.98085 23.7862 4.02548 23.7928 4.07 23.79C6.31 23.86 8.54 24.01 10.78 24.04C12.26 24.04 13.78 23.99 15.25 23.9599C16.42 23.9 17.6 23.8 18.77 23.74H20.26C20.3608 23.74 20.4574 23.6999 20.5287 23.6287C20.6 23.5574 20.64 23.4607 20.64 23.36C20.64 23.2592 20.6 23.1625 20.5287 23.0913C20.4574 23.02 20.3608 22.9799 20.26 22.9799H18.86C18.92 22.57 18.98 22.16 19.01 21.74V21.0499C19.001 20.822 18.9776 20.5949 18.94 20.37C18.8512 19.9743 18.7411 19.5837 18.61 19.2H18.73H20.22C20.2694 19.2026 20.3189 19.1954 20.3654 19.1786C20.412 19.1619 20.4547 19.1359 20.4911 19.1024C20.5275 19.0688 20.5567 19.0283 20.5771 18.9832C20.5976 18.9381 20.6087 18.8894 20.61 18.84C20.6147 18.7557 20.5859 18.6731 20.53 18.61C20.53 18.61 20.53 18.61 20.6 18.66H20.67C20.6947 18.7036 20.728 18.7417 20.768 18.772C20.8079 18.8024 20.8535 18.8243 20.9021 18.8364C20.9508 18.8486 21.0014 18.8507 21.0508 18.8427C21.1003 18.8348 21.1477 18.8168 21.19 18.79C21.9493 18.3261 22.5735 17.6709 23 16.89C23.4089 16.1815 23.6453 15.3867 23.69 14.57C23.7624 13.3843 23.5641 12.1976 23.11 11.1ZM17.81 21C17.81 21.2199 17.81 21.44 17.89 21.66C17.94 22.0599 18.01 22.44 18.07 22.83L15.28 22.75C13.79 22.75 12.28 22.69 10.81 22.75C9.34 22.8099 7.89 22.8599 6.43 22.9599C6.46502 22.4672 6.46502 21.9727 6.43 21.4799C6.43 21.1299 6.35 20.7899 6.29 20.4799C6.23 20.1699 6.1 19.67 6.05 19.26C7.64001 19.33 9.23 19.4 10.82 19.42C12.41 19.44 13.82 19.42 15.29 19.34C16.16 19.34 17.02 19.24 17.89 19.19C17.89 19.59 17.82 19.99 17.8 20.41C17.79 20.58 17.8 20.79 17.81 21Z" fill="black"/>
</g>
<defs>
<clipPath id="clip0_1047_6649">
<rect width="24" height="24" fill="white"/>
</clipPath>
</defs>
</svg>
